<svg xmlns="http://www.w3.org/2000/svg" viewBox="0 0 512 512" role="img" aria-label="AppsBeem Logistic">
  <defs>
    <linearGradient id="bg" x1="0%" y1="0%" x2="100%" y2="100%">
      <stop offset="0%" stop-color="#4f46e5"/>
      <stop offset="45%" stop-color="#6366f1"/>
      <stop offset="100%" stop-color="#7c3aed"/>
    </linearGradient>
    <linearGradient id="box" x1="0%" y1="0%" x2="100%" y2="100%">
      <stop offset="0%" stop-color="#ffffff"/>
      <stop offset="100%" stop-color="#e0e7ff"/>
    </linearGradient>
    <filter id="shadow" x="-20%" y="-20%" width="140%" height="140%">
      <feDropShadow dx="0" dy="8" stdDeviation="12" flood-color="#312e81" flood-opacity="0.35"/>
    </filter>
  </defs>
  <rect width="512" height="512" rx="112" fill="url(#bg)"/>
  <g filter="url(#shadow)" transform="translate(256 268)">
    <path fill="url(#box)" d="M-88-72 L0-118 L88-72 L88 38 L0 84 L-88 38 Z"/>
    <path fill="#c7d2fe" opacity="0.9" d="M0-118 L88-72 L0-26 L-88-72 Z"/>
    <path fill="#a5b4fc" opacity="0.85" d="M-88 38 L0 84 L0-26 L-88-72 Z"/>
    <path fill="none" stroke="#6366f1" stroke-width="6" stroke-linecap="round" d="M-88-72 L0-118 L88-72 L88 38 L0 84 L-88 38 Z M0-118 L0 84 M-88-72 L0-26 L88-72"/>
    <circle cx="62" cy="-48" r="18" fill="#10b981"/>
    <path fill="#fff" stroke="#fff" stroke-width="3" stroke-linecap="round" d="M54-52 L62-44 L74-58"/>
  </g>
</svg>
